<svg width="40" height="40" viewBox="0 0 40 40" fill="none" xmlns="http://www.w3.org/2000/svg">
  <!-- Background with gradient -->
  <defs>
    <linearGradient id="backgroundGradient" x1="0%" y1="0%" x2="100%" y2="100%">
      <stop offset="0%" style="stop-color:#6366F1;stop-opacity:1" />
      <stop offset="100%" style="stop-color:#8B5CF6;stop-opacity:1" />
    </linearGradient>
  </defs>
  
  <!-- Rounded rectangle background -->
  <rect width="40" height="40" rx="8" fill="url(#backgroundGradient)"/>
  
  <!-- Building/Business icon -->
  <g transform="translate(8, 8)">
    <!-- Main building -->
    <rect x="4" y="6" width="12" height="16" fill="white" opacity="0.9" rx="1"/>
    <rect x="6" y="8" width="2" height="2" fill="url(#backgroundGradient)" opacity="0.7" rx="0.5"/>
    <rect x="10" y="8" width="2" height="2" fill="url(#backgroundGradient)" opacity="0.7" rx="0.5"/>
    <rect x="6" y="12" width="2" height="2" fill="url(#backgroundGradient)" opacity="0.7" rx="0.5"/>
    <rect x="10" y="12" width="2" height="2" fill="url(#backgroundGradient)" opacity="0.7" rx="0.5"/>
    <rect x="8" y="16" width="2" height="6" fill="url(#backgroundGradient)" opacity="0.8" rx="1"/>
    
    <!-- Side buildings -->
    <rect x="1" y="10" width="3" height="12" fill="white" opacity="0.7" rx="0.5"/>
    <rect x="18" y="8" width="3" height="14" fill="white" opacity="0.7" rx="0.5"/>
    
    <!-- Small windows -->
    <rect x="1.5" y="12" width="1" height="1" fill="url(#backgroundGradient)" opacity="0.6" rx="0.2"/>
    <rect x="1.5" y="15" width="1" height="1" fill="url(#backgroundGradient)" opacity="0.6" rx="0.2"/>
    <rect x="19" y="10" width="1" height="1" fill="url(#backgroundGradient)" opacity="0.6" rx="0.2"/>
    <rect x="19" y="13" width="1" height="1" fill="url(#backgroundGradient)" opacity="0.6" rx="0.2"/>
  </g>
</svg>
